<svg width="58" height="58" viewBox="0 0 58 58" fill="none" xmlns="http://www.w3.org/2000/svg">
<path d="M33.2294 52.9249L30.6919 50.3875L39.271 41.8083L16.1919 18.7291L7.6127 27.3083L5.0752 24.7708L8.45853 21.2666L5.0752 17.8833L10.2106 12.7479L7.67311 10.2104L10.2106 7.67287L12.8085 10.15L17.8835 5.07495L21.2669 8.45828L24.771 5.07495L27.3085 7.61245L18.7294 16.1916L41.8085 39.2708L50.3877 30.6916L52.9252 33.2291L49.5419 36.7333L52.9252 40.1166L47.7294 45.3125L50.2669 47.8499L47.7294 50.3875L45.1919 47.8499L40.1169 52.9249L36.7335 49.5416L33.2294 52.9249Z" fill="white"/>
</svg>
