<svg width="58" height="58" viewBox="0 0 58 58" fill="none" xmlns="http://www.w3.org/2000/svg">
<path d="M29 18.4875C27.7917 18.4875 26.7545 18.0545 25.8885 17.1885C25.0226 16.3225 24.5896 15.2854 24.5896 14.077C24.5896 12.8687 25.0226 11.8316 25.8885 10.9656C26.7545 10.0996 27.7917 9.66663 29 9.66663C30.2083 9.66663 31.2455 10.0996 32.1115 10.9656C32.9774 11.8316 33.4104 12.8687 33.4104 14.077C33.4104 15.2854 32.9774 16.3225 32.1115 17.1885C31.2455 18.0545 30.2083 18.4875 29 18.4875ZM15.7688 48.3333C14.7215 48.3333 13.8556 47.9909 13.1708 47.3062C12.4861 46.6215 12.1438 45.7555 12.1438 44.7083C12.1438 43.9833 12.325 43.2885 12.6875 42.6239C13.05 41.9593 13.5736 41.4861 14.2583 41.2041L24.65 37.0958V28.7583C21.9917 32.0208 19.2931 34.4777 16.5542 36.1291C13.8153 37.7805 10.7139 38.6062 7.25 38.6062V34.9812C9.98889 34.9812 12.4861 34.3468 14.7417 33.0781C16.9972 31.8093 19.0312 30.027 20.8438 27.7312L24.3479 23.8041C24.7507 23.3208 25.224 22.918 25.7677 22.5958C26.3115 22.2736 26.9056 22.1125 27.55 22.1125H30.45C31.0944 22.1125 31.6986 22.2736 32.2625 22.5958C32.8264 22.918 33.3097 23.3208 33.7125 23.8041L37.2167 27.7312C39.15 29.9465 41.2042 31.7086 43.3792 33.0177C45.5542 34.3267 48.0111 34.9812 50.75 34.9812V38.6062C47.3264 38.6062 44.2351 37.7805 41.476 36.1291C38.717 34.4777 36.0083 32.0208 33.35 28.7583V37.0958L43.7417 41.2041C44.4264 41.4861 44.95 41.9593 45.3125 42.6239C45.675 43.2885 45.8563 43.9833 45.8563 44.7083C45.8563 45.7555 45.5139 46.6215 44.8292 47.3062C44.1444 47.9909 43.2785 48.3333 42.2313 48.3333H23.925V47.6687C23.925 46.6215 24.2472 45.7757 24.8917 45.1312C25.5361 44.4868 26.3819 44.1645 27.4292 44.1645H35.4646C35.7868 44.1645 36.0688 44.0437 36.3104 43.802C36.5521 43.5604 36.6729 43.2784 36.6729 42.9562C36.6729 42.634 36.5521 42.352 36.3104 42.1104C36.0688 41.8687 35.7868 41.7479 35.4646 41.7479H27.4292C25.6569 41.7479 24.2472 42.2916 23.2 43.3791C22.1528 44.4666 21.6292 45.8965 21.6292 47.6687V48.3333H15.7688Z" fill="white"/>
</svg>
