<svg width="58" height="58" viewBox="0 0 58 58" fill="none" xmlns="http://www.w3.org/2000/svg">
<path d="M8.4585 9.66663L12.9293 18.85H20.7835L16.3127 9.66663H21.6897L26.1606 18.85H34.0147L29.5439 9.66663H34.921L39.3918 18.85H47.246L42.7752 9.66663H49.5418C50.5085 9.66663 51.3543 10.0291 52.0793 10.7541C52.8043 11.4791 53.1668 12.325 53.1668 13.2916V44.7083C53.1668 45.675 52.8043 46.5208 52.0793 47.2458C51.3543 47.9708 50.5085 48.3333 49.5418 48.3333H8.4585C7.49183 48.3333 6.646 47.9708 5.921 47.2458C5.196 46.5208 4.8335 45.675 4.8335 44.7083V13.2916C4.8335 12.325 5.196 11.4791 5.921 10.7541C6.646 10.0291 7.49183 9.66663 8.4585 9.66663ZM8.4585 22.475V44.7083H49.5418V22.475H8.4585ZM8.4585 22.475V44.7083V22.475Z" fill="white"/>
</svg>
