<svg fill="none" version="1.1" viewBox="0 0 100 71" xmlns="http://www.w3.org/2000/svg">
 <g clip-path="url(#clip0_27_53)">
  <path d="m97.94 10.956c-1.1532-4.2834-4.5305-7.6606-8.8138-8.8138-7.8254-2.1417-39.127-2.1417-39.127-2.1417s-31.301 0-39.127 2.0593c-4.201 1.1532-7.6606 4.6128-8.8138 8.8962-2.0593 7.8253-2.0593 24.053-2.0593 24.053s0 16.31 2.0593 24.053c1.1532 4.2834 4.5305 7.6606 8.8138 8.8138 7.9077 2.1417 39.127 2.1417 39.127 2.1417s31.301 0 39.127-2.0593c4.2833-1.1532 7.6606-4.5305 8.8138-8.8138 2.0593-7.8254 2.0593-24.053 2.0593-24.053s0.0824-16.31-2.0593-24.135z" fill="#6A2383"/>
  <path d="m66.062 35.008-26.03-14.992v29.983l26.03-14.992z" fill="#fff"/>
 </g>
 <defs>
  <clipPath id="clip0_27_53">
   <rect width="100" height="70.016" fill="#fff"/>
  </clipPath>
 </defs>
</svg>
