<svg width="58" height="58" viewBox="0 0 58 58" fill="none" xmlns="http://www.w3.org/2000/svg">
<path d="M29.0002 53.1667C25.6974 53.1667 22.5759 52.5323 19.6356 51.2636C16.6953 49.9948 14.1276 48.2629 11.9325 46.0677C9.73732 43.8726 8.00537 41.3049 6.73662 38.3646C5.46787 35.4243 4.8335 32.3028 4.8335 29C4.8335 25.657 5.46787 22.5254 6.73662 19.6052C8.00537 16.6851 9.73732 14.1275 11.9325 11.9323C14.1276 9.73719 16.6953 8.00525 19.6356 6.7365C22.5759 5.46775 25.6974 4.83337 29.0002 4.83337C32.3432 4.83337 35.4748 5.46775 38.395 6.7365C41.3151 8.00525 43.8727 9.73719 46.0679 11.9323C48.263 14.1275 49.9949 16.6851 51.2637 19.6052C52.5325 22.5254 53.1668 25.657 53.1668 29C53.1668 32.3028 52.5325 35.4243 51.2637 38.3646C49.9949 41.3049 48.263 43.8726 46.0679 46.0677C43.8727 48.2629 41.3151 49.9948 38.395 51.2636C35.4748 52.5323 32.3432 53.1667 29.0002 53.1667ZM41.3856 23.3813L45.5543 21.9313L46.6418 18.0646C45.2724 15.9299 43.5807 14.1073 41.5668 12.5969C39.5529 11.0865 37.2772 9.92851 34.7397 9.12296L30.8127 11.7209V15.95L41.3856 23.3813ZM16.6752 23.3813L27.1877 15.95V11.7209L23.321 9.12296C20.7835 9.92851 18.5078 11.0865 16.4939 12.5969C14.48 14.1073 12.7884 15.9299 11.4189 18.0646L12.7481 21.9313L16.6752 23.3813ZM13.4127 42.7146L17.0377 42.2917L19.3939 38.3646L15.6481 26.825L11.3585 25.375L8.4585 27.7313C8.4585 30.6313 8.78072 33.2796 9.42516 35.6761C10.0696 38.0726 11.3988 40.4188 13.4127 42.7146ZM29.0002 49.5417C30.0877 49.5417 31.1852 49.441 32.2929 49.2396C33.4005 49.0382 34.5585 48.7764 35.7668 48.4542L37.7606 44.1042L35.8272 40.7813H22.2335L20.3002 44.1042L22.2939 48.4542C23.3411 48.7764 24.4488 49.0382 25.6168 49.2396C26.7849 49.441 27.9127 49.5417 29.0002 49.5417ZM22.596 37.1563H35.1627L38.8481 26.1L29.0002 19.0313L18.971 26.1L22.596 37.1563ZM44.6481 42.7146C46.6217 40.4188 47.9307 38.0726 48.5752 35.6761C49.2196 33.2796 49.5418 30.6313 49.5418 27.7313L46.6418 25.7375L42.4127 26.825L38.6668 38.3646L40.9627 42.2917L44.6481 42.7146Z" fill="white"/>
</svg>
