<svg width="463" height="463" viewBox="0 0 463 463" fill="none" xmlns="http://www.w3.org/2000/svg">
<g clip-path="url(#clip0_43_74)">
<path fill-rule="evenodd" clip-rule="evenodd" d="M281.855 356.135C378.503 356.135 456.854 277.793 456.854 181.145C456.854 84.4975 378.502 6.1459 281.855 6.1459C185.159 6.1459 106.865 84.496 106.865 181.145V356.135H281.855ZM281.855 362.281C381.897 362.281 463 281.187 463 181.145C463 81.1031 381.897 -9.15527e-05 281.855 -9.15527e-05C181.763 -9.15527e-05 100.719 81.1031 100.719 181.145V362.281H281.855Z" fill="white"/>
<path d="M50.3592 362.281C37.003 362.281 24.1938 367.587 14.7496 377.031C5.30533 386.475 -0.000396729 399.284 -0.000396729 412.64C-0.000396729 425.997 5.30533 438.806 14.7496 448.25C24.1938 457.694 37.003 463 50.3592 463V463C63.7154 463 76.5245 457.694 85.9688 448.25C95.413 438.806 100.719 425.997 100.719 412.64V362.281H50.3592Z" fill="#00A291"/>
</g>
<defs>
<clipPath id="clip0_43_74">
<rect width="463" height="463" fill="white" transform="translate(463 463) rotate(-180)"/>
</clipPath>
</defs>
</svg>
