<svg width="381" height="381" viewBox="0 0 381 381" fill="none" xmlns="http://www.w3.org/2000/svg">
<path fill-rule="evenodd" clip-rule="evenodd" d="M224.374 305.998C306.873 305.998 373.754 239.125 373.754 156.626C373.754 74.1273 306.873 7.24619 224.374 7.24619C141.834 7.24619 75.002 74.1261 75.002 156.626V305.998H224.374ZM224.374 311.244C309.77 311.244 379 242.022 379 156.626C379 71.2299 309.77 1.99991 224.374 1.99991C138.936 1.99991 69.7558 71.2299 69.7558 156.626V311.244H224.374Z" fill="white" stroke="white" stroke-width="4"/>
<path d="M34.9974 311.005C25.7154 311.005 16.8136 314.692 10.2502 321.255C3.68687 327.818 -0.00038147 336.72 -0.00038147 346.002C-0.00038147 355.284 3.68687 364.186 10.2502 370.749C16.8136 377.313 25.7154 381 34.9974 381V381C44.2793 381 53.1812 377.313 59.7445 370.749C66.3079 364.186 69.9951 355.284 69.9951 346.002V311.005H34.9974Z" fill="#00A291"/>
</svg>
