<svg width="514" height="514" viewBox="0 0 514 514" fill="none" xmlns="http://www.w3.org/2000/svg">
<g clip-path="url(#clip0_257_31)">
<path d="M201.099 402.187C90.0369 402.187 0 312.161 0 201.099C0 90.0369 90.0369 -3.05176e-05 201.099 -3.05176e-05C312.215 -3.05176e-05 402.187 90.0369 402.187 201.099V402.187H201.099Z" fill="#6A2383"/>
<path d="M458.093 402.187C472.921 402.187 487.141 408.077 497.625 418.561C508.11 429.046 514 443.266 514 458.093C514 472.921 508.11 487.141 497.625 497.625C487.141 508.11 472.921 514 458.093 514V514C443.266 514 429.046 508.11 418.561 497.625C408.077 487.141 402.187 472.921 402.187 458.093V402.187H458.093Z" fill="#00A291"/>
</g>
<defs>
<clipPath id="clip0_257_31">
<rect width="514" height="514" fill="white" transform="matrix(1 0 0 -1 0 514)"/>
</clipPath>
</defs>
</svg>
