<svg width="110" height="36" viewBox="0 0 110 36" fill="none" xmlns="http://www.w3.org/2000/svg">
<g clip-path="url(#clip0_228_32)">
<path d="M73.0304 8.97705C65.0089 8.97705 60.0771 15.1173 60.0771 22.5346C60.0771 28.9204 63.7123 36.0001 73.0304 36.0001C81.5125 36.0001 83.9359 30.4739 84.8871 27.4038H80.4643C79.9886 27.4024 79.5197 27.5179 79.0977 27.7403C78.6756 27.9628 78.313 28.2855 78.0409 28.681C77.4434 29.3512 76.7089 29.8813 75.8885 30.2344C75.0682 30.5876 74.1818 30.7552 73.291 30.7256C67.2324 30.7256 67.1778 25.881 67.0627 24.2232H85.3476C85.8504 16.7935 81.9608 8.97705 73.0304 8.97705ZM67.0445 19.7654C67.0445 19.2435 67.4505 14.2945 72.8366 14.2945C76.4051 14.2945 77.6835 16.3453 78.3681 19.7654H67.0445Z" fill="#6A2383"/>
<path d="M89.6674 0V28.9081C89.7219 33.7773 90.6064 35.4719 96.5923 35.4719V5.70425C96.5136 0.90875 95.5987 0 89.6674 0Z" fill="#6A2383"/>
<path d="M103.081 0V28.9081C103.136 33.7773 104.02 35.4719 110 35.4719V5.70425C109.952 0.90875 109.055 0 103.081 0Z" fill="#6A2383"/>
<path d="M52.4614 25.5249C51.9765 25.535 51.5067 25.6976 51.117 25.9902C50.7274 26.2828 50.4371 26.691 50.2864 27.1582C49.4261 29.5651 47.863 30.7318 45.1427 30.7318C40.9562 30.7318 39.3627 26.6915 39.3627 22.5408C39.3627 18.5926 41.0046 14.2945 45.2941 14.2945C47.9781 14.2945 49.3958 15.5225 50.0017 17.0821C50.1398 17.5945 50.4534 18.0403 50.8864 18.3396C51.3194 18.6389 51.8434 18.7721 52.3645 18.7154H57.2538C56.8842 12.084 51.2618 8.97705 45.3365 8.97705C36.6121 8.97705 32.4075 15.3874 32.4075 22.8416C32.4075 31.1923 38.1147 36.0001 45.1911 36.0001C51.3709 36.0001 56.4298 32.8624 57.4053 25.5249H52.4614Z" fill="#6A2383"/>
<path d="M28.1422 22.5591C28.1422 31.5975 22.8712 36 14.0499 36C5.22858 36 0 31.6527 0 22.5591V0C6.21007 0 7.19762 1.66399 7.27032 6.43493V22.5591C7.27032 26.2125 8.19729 29.8168 14.0681 29.8168C19.2421 29.8168 20.9022 27.5265 20.9022 22.5591V0C27.1123 0 28.0998 1.66399 28.1725 6.43493L28.1422 22.5591Z" fill="#6A2383"/>
</g>
<defs>
<clipPath id="clip0_228_32">
<rect width="110" height="36" fill="white"/>
</clipPath>
</defs>
</svg>
