<svg xmlns="http://www.w3.org/2000/svg" xmlns:xlink="http://www.w3.org/1999/xlink" style="display: block !important; height: 0 !important; width: 0 !important;" width="0" height="0">
<defs>
        <clipPath id="tmpl-hh__icon-play-btn_clip0_27_53">
            <path fill="#fff" d="M0 0h100v70.016H0z"/>
        </clipPath>
    </defs>
<symbol id="tmpl-hh__icon-arrow-left" viewBox="0 0 8 14">
    <path d="M6.293 13.293c.63.63 1.707.184 1.707-.707V1.414C8 .523 6.923.077 6.293.707L.707 6.293a1 1 0 000 1.414l5.586 5.586z"/>
</symbol>
<symbol id="tmpl-hh__icon-arrow-right" viewBox="0 0 8 14">
    <path d="M1.707.707C1.077.077 0 .523 0 1.414v11.172c0 .891 1.077 1.337 1.707.707l5.586-5.585a1 1 0 000-1.415L1.707.708z"/>
</symbol>
<symbol id="tmpl-hh__icon-fitness">
    <path d="M33.23 52.925l-2.538-2.537 8.579-8.58-23.08-23.079-8.578 8.58-2.538-2.538 3.384-3.504-3.384-3.384 5.136-5.135-2.538-2.538 2.538-2.537 2.598 2.477 5.075-5.075 3.383 3.383 3.504-3.383 2.537 2.537-8.579 8.58L41.81 39.27l8.579-8.58 2.537 2.538-3.383 3.504 3.383 3.384-5.196 5.196 2.538 2.537-2.538 2.538-2.537-2.538-5.075 5.075-3.383-3.383-3.505 3.383z" fill="#fff"/>
</symbol>
<symbol id="tmpl-hh__icon-joga">
    <path d="M29 18.488c-1.208 0-2.245-.433-3.111-1.3-.866-.865-1.3-1.903-1.3-3.111 0-1.208.434-2.245 1.3-3.111.866-.866 1.903-1.3 3.111-1.3 1.208 0 2.245.434 3.111 1.3.866.866 1.3 1.903 1.3 3.111 0 1.208-.434 2.246-1.3 3.112-.865.866-1.903 1.299-3.111 1.299zM15.769 48.332c-1.047 0-1.913-.342-2.598-1.027-.685-.684-1.027-1.55-1.027-2.598 0-.725.181-1.42.543-2.084a3.083 3.083 0 011.571-1.42l10.392-4.108v-8.338c-2.658 3.263-5.357 5.72-8.096 7.371-2.739 1.652-5.84 2.477-9.304 2.477v-3.625c2.739 0 5.236-.634 7.492-1.903 2.255-1.269 4.29-3.051 6.102-5.347l3.504-3.927a5.454 5.454 0 011.42-1.208 3.433 3.433 0 011.782-.483h2.9c.644 0 1.249.16 1.813.483a5.276 5.276 0 011.45 1.208l3.504 3.927c1.933 2.215 3.987 3.978 6.162 5.287 2.175 1.309 4.632 1.963 7.371 1.963v3.625c-3.424 0-6.515-.825-9.274-2.477-2.759-1.651-5.468-4.108-8.126-7.37v8.337l10.392 4.108a3.083 3.083 0 011.57 1.42c.363.664.544 1.36.544 2.084 0 1.047-.342 1.913-1.027 2.598-.685.685-1.55 1.027-2.598 1.027H23.925v-.664c0-1.047.322-1.893.967-2.538.644-.644 1.49-.967 2.537-.967h8.036c.322 0 .604-.12.845-.362.242-.242.363-.524.363-.846 0-.322-.12-.604-.363-.846a1.159 1.159 0 00-.845-.362h-8.036c-1.772 0-3.182.544-4.229 1.631-1.047 1.088-1.57 2.518-1.57 4.29v.664h-5.861z" fill="#fff"/>
</symbol>
<symbol id="tmpl-hh__icon-movie">
    <path d="M8.459 9.667l4.47 9.183h7.854l-4.47-9.183h5.377l4.47 9.183h7.855l-4.471-9.183h5.377l4.47 9.183h7.855l-4.47-9.183h6.766c.966 0 1.812.362 2.537 1.087.725.725 1.088 1.571 1.088 2.538v31.416c0 .967-.363 1.813-1.088 2.538-.725.725-1.57 1.087-2.537 1.087H8.458c-.966 0-1.812-.362-2.537-1.087-.725-.725-1.088-1.571-1.088-2.538V13.292c0-.967.363-1.813 1.088-2.538.725-.725 1.57-1.087 2.538-1.087zm0 12.808v22.233h41.083V22.475H8.458zm0 0v22.233-22.233z" fill="#fff"/>
</symbol>
<symbol id="tmpl-hh__icon-play-btn" viewBox="0 0 100 71">
    <g clip-path="url(#tmpl-hh__icon-play-btn_clip0_27_53)">
        <path d="M97.94 10.956a12.53 12.53 0 00-8.814-8.814C81.301 0 50 0 50 0S18.7 0 10.872 2.06c-4.2 1.153-7.66 4.613-8.814 8.896C0 18.781 0 35.009 0 35.009s0 16.31 2.06 24.053a12.53 12.53 0 008.813 8.814C18.78 70.017 50 70.017 50 70.017s31.301 0 39.127-2.059a12.53 12.53 0 008.814-8.814C100 51.32 100 35.091 100 35.091s.082-16.31-2.06-24.135z" fill="#6A2383"/>
        <path d="M66.062 35.008l-26.03-14.992v29.983l26.03-14.992z" fill="#fff"/>
    </g>
    
</symbol>
<symbol id="tmpl-hh__icon-sport">
    <path d="M29 53.167c-3.303 0-6.424-.635-9.364-1.903-2.94-1.27-5.508-3.001-7.704-5.196-2.195-2.195-3.927-4.763-5.195-7.703-1.27-2.94-1.904-6.062-1.904-9.365 0-3.343.635-6.475 1.904-9.395 1.268-2.92 3-5.478 5.195-7.673 2.196-2.195 4.763-3.927 7.704-5.196 2.94-1.268 6.061-1.903 9.364-1.903 3.343 0 6.475.635 9.395 1.904 2.92 1.268 5.478 3 7.673 5.195 2.195 2.195 3.927 4.753 5.196 7.673 1.268 2.92 1.903 6.052 1.903 9.395 0 3.303-.635 6.424-1.903 9.365-1.27 2.94-3.001 5.508-5.196 7.703-2.195 2.195-4.753 3.927-7.673 5.196-2.92 1.268-6.052 1.903-9.395 1.903zM41.386 23.38l4.168-1.45 1.088-3.866a20.847 20.847 0 00-5.075-5.468c-2.014-1.51-4.29-2.668-6.827-3.474l-3.927 2.598v4.229l10.573 7.431zm-24.71 0l10.512-7.431v-4.23L23.32 9.124c-2.538.806-4.813 1.963-6.827 3.474a20.848 20.848 0 00-5.075 5.468l1.33 3.866 3.926 1.45zm-3.263 19.334l3.625-.423 2.356-3.927-3.746-11.54-4.29-1.45-2.9 2.356c0 2.9.323 5.549.967 7.945.645 2.397 1.974 4.743 3.988 7.039zM29 49.542c1.088 0 2.185-.101 3.293-.302a44.207 44.207 0 003.474-.786l1.994-4.35-1.934-3.323H22.234L20.3 44.104l1.994 4.35c1.047.322 2.155.584 3.323.786a19.91 19.91 0 003.383.302zm-6.404-12.386h12.567L38.848 26.1 29 19.031 18.971 26.1l3.625 11.056zm22.052 5.559c1.974-2.296 3.283-4.642 3.927-7.039.645-2.396.967-5.045.967-7.945l-2.9-1.994-4.23 1.088-3.745 11.54 2.296 3.927 3.685.423z" fill="#fff"/>
</symbol>
</svg>